<svg width="19" height="20" viewBox="0 0 19 20" fill="none" xmlns="http://www.w3.org/2000/svg">
<path d="M6.99235 16.4051C2.7121 17.6892 2.7121 14.265 1 13.837M12.9847 18.9733V15.6603C13.0168 15.2522 12.9617 14.8418 12.8229 14.4566C12.6842 14.0713 12.465 13.72 12.18 13.4261C14.868 13.1264 17.693 12.1077 17.693 7.4337C17.6928 6.23851 17.233 5.08915 16.4089 4.22351C16.7991 3.17785 16.7716 2.02205 16.3319 0.996203C16.3319 0.996203 15.3217 0.696585 12.9847 2.26316C11.0226 1.7314 8.95441 1.7314 6.99235 2.26316C4.65534 0.696585 3.6452 0.996203 3.6452 0.996203C3.20551 2.02205 3.17792 3.17785 3.56815 4.22351C2.73789 5.09557 2.27767 6.25532 2.28408 7.45939C2.28408 12.0992 5.10904 13.1179 7.79704 13.4517C7.5154 13.7428 7.29819 14.0898 7.15955 14.4704C7.02091 14.8509 6.96394 15.2564 6.99235 15.6603V18.9733" stroke="black" stroke-linecap="round" stroke-linejoin="round"/>
</svg>
