<svg width="20" height="20" viewBox="0 0 20 20" fill="none" xmlns="http://www.w3.org/2000/svg">
<path d="M4.88001 5.6999C4.78481 5.64855 4.67791 5.6228 4.56977 5.62515C4.46163 5.6275 4.35595 5.65787 4.26307 5.7133C4.17019 5.76873 4.09328 5.84731 4.03986 5.94137C3.98645 6.03542 3.95836 6.14173 3.95834 6.2499V14.1666C3.95834 14.3323 4.02419 14.4913 4.1414 14.6085C4.25861 14.7257 4.41758 14.7916 4.58334 14.7916C4.7491 14.7916 4.90808 14.7257 5.02529 14.6085C5.1425 14.4913 5.20834 14.3323 5.20834 14.1666V7.29656L9.70334 9.71656C9.88834 9.81656 10.1117 9.81656 10.2967 9.71656L14.7917 7.29656V14.1666C14.7917 14.3323 14.8575 14.4913 14.9747 14.6085C15.0919 14.7257 15.2509 14.7916 15.4167 14.7916C15.5824 14.7916 15.7414 14.7257 15.8586 14.6085C15.9758 14.4913 16.0417 14.3323 16.0417 14.1666V6.2499C16.0417 6.14173 16.0136 6.03542 15.9602 5.94137C15.9067 5.84731 15.8298 5.76873 15.737 5.7133C15.6441 5.65787 15.5384 5.6275 15.4302 5.62515C15.3221 5.6228 15.2152 5.64855 15.12 5.6999L10 8.45656L4.88001 5.6999Z" fill="#616161"/>
<path fill-rule="evenodd" clip-rule="evenodd" d="M14.425 3.1017C11.4809 2.83849 8.51914 2.83849 5.57501 3.1017L4.31001 3.2142C3.65108 3.27304 3.03123 3.55227 2.55055 4.00679C2.06986 4.46132 1.75642 5.0646 1.66084 5.7192C1.24578 8.558 1.24578 11.4421 1.66084 14.2809C1.75663 14.9355 2.07027 15.5386 2.5511 15.993C3.03193 16.4474 3.65189 16.7264 4.31084 16.785L5.57418 16.8984C8.51918 17.1617 11.4808 17.1617 14.4258 16.8984L15.69 16.785C16.3488 16.7262 16.9686 16.4471 17.4492 15.9928C17.9299 15.5384 18.2434 14.9353 18.3392 14.2809C18.7542 11.4421 18.7542 8.558 18.3392 5.7192C18.2436 5.06447 17.93 4.46109 17.4492 4.00655C16.9683 3.55201 16.3482 3.27286 15.6892 3.2142L14.4258 3.1017H14.425ZM5.68668 4.3467C8.55706 4.09006 11.4446 4.09006 14.315 4.3467L15.5792 4.46004C15.9581 4.4937 16.3147 4.65413 16.5913 4.91541C16.8678 5.1767 17.0482 5.52358 17.1033 5.90004C17.5009 8.61891 17.5009 11.3812 17.1033 14.1C17.0482 14.4765 16.8678 14.8234 16.5913 15.0847C16.3147 15.3459 15.9581 15.5064 15.5792 15.54L14.315 15.6534C11.445 15.91 8.55668 15.91 5.68668 15.6534L4.42251 15.54C4.04354 15.5064 3.68697 15.3459 3.41041 15.0847C3.13386 14.8234 2.95345 14.4765 2.89834 14.1C2.50082 11.3812 2.50082 8.61892 2.89834 5.90004C2.95345 5.52358 3.13386 5.1767 3.41041 4.91541C3.68697 4.65413 4.04354 4.4937 4.42251 4.46004L5.68668 4.3467Z" fill="#616161"/>
</svg>
