<svg width="64" height="64" viewBox="0 0 64 64" fill="none" xmlns="http://www.w3.org/2000/svg">
<g clip-path="url(#clip0_335_1017)">
<path d="M16 57C14.896 57 14 56.104 14 55C14 53.896 14.896 53 16 53C17.104 53 18 53.896 18 55C18 56.104 17.104 57 16 57ZM62.72 62V2.00003C62.72 1.60203 62.398 1.28003 62 1.28003H14C13.602 1.28003 13.28 1.60203 13.28 2.00003V13.28H2C1.602 13.28 1.28 13.602 1.28 14V62C1.28 62.398 1.602 62.72 2 62.72H62C62.398 62.72 62.72 62.398 62.72 62ZM40.72 48.72H61.28V61.278H40.72V48.72ZM30.72 48.72H39.28V61.278H30.72V48.72ZM2.72 48.72H29.28V61.278H2.72V48.72ZM40.72 22C40.72 21.602 40.398 21.28 40 21.28H30.72V14C30.72 13.602 30.398 13.28 30 13.28H14.718V2.72003H61.278V47.28H40.72V22ZM30.72 22.72H39.28V47.28H30.72V22.72ZM2.72 14.72H29.28V47.28H2.72V14.72Z" fill="#383838"/>
</g>
<defs>
<clipPath id="clip0_335_1017">
<rect width="64" height="64" fill="white"/>
</clipPath>
</defs>
</svg>
