<svg width="35" height="35" viewBox="0 0 35 35" fill="none" xmlns="http://www.w3.org/2000/svg">
<path d="M30.4354 25.1562L26.4833 18.3313C27.292 16.8459 27.7133 15.1808 27.7083 13.4896C27.7083 10.7822 26.6328 8.18564 24.7183 6.2712C22.8039 4.35677 20.2074 3.28125 17.4999 3.28125C14.7925 3.28125 12.196 4.35677 10.2816 6.2712C8.36713 8.18564 7.29161 10.7822 7.29161 13.4896C7.28659 15.1808 7.7079 16.8459 8.51661 18.3313L4.56453 25.1562C4.43628 25.3784 4.36889 25.6304 4.36914 25.8869C4.36939 26.1434 4.43729 26.3952 4.56597 26.6171C4.69465 26.839 4.87957 27.023 5.10208 27.1506C5.32458 27.2781 5.57679 27.3448 5.83328 27.3438H10.0187L12.1479 30.9312C12.2196 31.0501 12.308 31.1582 12.4104 31.2521C12.6807 31.5127 13.0411 31.6589 13.4166 31.6604H13.6208C13.8409 31.6303 14.0513 31.5502 14.2358 31.4264C14.4203 31.3026 14.5741 31.1382 14.6854 30.9458L17.4999 26.1042L20.3145 30.9896C20.4274 31.1792 20.5819 31.3407 20.7663 31.462C20.9507 31.5832 21.1603 31.6611 21.3791 31.6896H21.5833C21.9638 31.6919 22.3301 31.5453 22.6041 31.2813C22.7022 31.1927 22.7858 31.0894 22.852 30.975L24.9812 27.3875H29.1666C29.4236 27.3885 29.6763 27.3216 29.8991 27.1936C30.1219 27.0655 30.3069 26.8809 30.4354 26.6583C30.5716 26.4315 30.6436 26.1719 30.6436 25.9073C30.6436 25.6427 30.5716 25.3831 30.4354 25.1562ZM13.402 27.3875L12.1041 25.2146C11.9763 24.999 11.7951 24.82 11.578 24.6948C11.3609 24.5697 11.1151 24.5026 10.8645 24.5H8.34161L10.427 20.8833C11.8631 22.2671 13.673 23.2 15.6333 23.5667L13.402 27.3875ZM17.4999 20.7812C16.0578 20.7812 14.648 20.3536 13.4489 19.5524C12.2498 18.7512 11.3152 17.6124 10.7633 16.28C10.2114 14.9476 10.067 13.4815 10.3484 12.067C10.6297 10.6526 11.3242 9.35335 12.344 8.3336C13.3637 7.31384 14.663 6.61937 16.0774 6.33802C17.4919 6.05667 18.958 6.20107 20.2903 6.75296C21.6227 7.30485 22.7615 8.23944 23.5627 9.43855C24.364 10.6377 24.7916 12.0474 24.7916 13.4896C24.7916 15.4235 24.0234 17.2781 22.6559 18.6456C21.2885 20.013 19.4338 20.7812 17.4999 20.7812ZM24.1354 24.5C23.8848 24.5026 23.639 24.5697 23.4219 24.6948C23.2048 24.82 23.0236 24.999 22.8958 25.2146L21.5979 27.3875L19.3812 23.5229C21.3346 23.1487 23.1378 22.2167 24.5729 20.8396L26.6583 24.4563L24.1354 24.5Z" fill="white"/>
</svg>
