<svg width="32" height="32" viewBox="0 0 32 32" fill="none" xmlns="http://www.w3.org/2000/svg">
<path d="M3.46664 14.12L11.1733 6.39997L13.4266 8.66664C13.1066 9.79997 13.6266 11.04 14.6666 11.64V19.0266C13.8666 19.48 13.3333 20.3466 13.3333 21.3333C13.3333 22.0405 13.6143 22.7188 14.1144 23.2189C14.6144 23.719 15.2927 24 16 24C16.7072 24 17.3855 23.719 17.8856 23.2189C18.3857 22.7188 18.6666 22.0405 18.6666 21.3333C18.6666 20.3466 18.1333 19.48 17.3333 19.0266V12.5466L20.0933 15.3333C20 15.5333 20 15.76 20 16C20 16.7072 20.2809 17.3855 20.781 17.8856C21.2811 18.3857 21.9594 18.6666 22.6666 18.6666C23.3739 18.6666 24.0522 18.3857 24.5523 17.8856C25.0524 17.3855 25.3333 16.7072 25.3333 16C25.3333 15.2927 25.0524 14.6144 24.5523 14.1144C24.0522 13.6143 23.3739 13.3333 22.6666 13.3333C22.4266 13.3333 22.2 13.3333 22 13.4266L18.5733 9.99997C18.7389 9.38242 18.6747 8.72577 18.3927 8.15196C18.1107 7.57815 17.63 7.12618 17.04 6.87997C16.4666 6.66664 15.8666 6.6133 15.3333 6.75997L13.0666 4.50664L14.12 3.46664C15.16 2.4133 16.84 2.4133 17.88 3.46664L28.5333 14.12C29.5866 15.16 29.5866 16.84 28.5333 17.88L17.88 28.5333C16.84 29.5866 15.16 29.5866 14.12 28.5333L3.46664 17.88C2.4133 16.84 2.4133 15.16 3.46664 14.12Z" fill="#ADB5BD"/>
</svg>
