<svg width="32" height="32" viewBox="0 0 32 32" fill="none" xmlns="http://www.w3.org/2000/svg">
<g clip-path="url(#clip0_312_117)">
<path d="M28.0527 19.8014V12.2001C28.3192 12.1364 28.5752 12.0347 28.8127 11.8982C30.1772 11.1056 30.6431 9.36506 29.8586 8.0005C29.066 6.63587 27.3255 6.17013 25.9609 6.95456C25.7218 7.09337 25.504 7.26598 25.3143 7.46706L18.7329 3.66712C19.1455 2.29087 18.4661 0.799687 17.1119 0.226437C15.6597 -0.388375 13.9888 0.2885 13.3741 1.74081C13.1053 2.37544 13.0834 3.05175 13.265 3.66356L6.6835 7.46344C5.80025 6.53281 4.36512 6.28225 3.2025 6.946C1.83556 7.72638 1.35287 9.47044 2.13325 10.8374C2.53969 11.5493 3.20775 12.0207 3.94762 12.1994V19.8027C2.62612 20.125 1.68756 21.3516 1.77375 22.7531C1.87025 24.3242 3.2225 25.5147 4.80094 25.4219C5.51708 25.3759 6.18962 25.0619 6.68456 24.5422L13.265 28.3416C12.8788 29.6439 13.4684 31.0713 14.7266 31.6993C16.1377 32.4036 17.8511 31.8249 18.5518 30.4212C18.903 29.7175 18.9368 28.9396 18.7076 28.249L25.2495 24.4719C25.7774 25.0651 26.5471 25.4369 27.4018 25.4288C28.9757 25.4138 30.2474 24.1264 30.2324 22.5524C30.2257 21.2137 29.3009 20.1008 28.0527 19.8014ZM7.39288 21.8998C7.26379 21.3703 6.98569 20.8888 6.5915 20.5124L15.2065 5.59131C15.7257 5.74301 16.2775 5.74314 16.7968 5.59169L25.411 20.5114C25.0214 20.8824 24.7366 21.3612 24.6057 21.8998H7.39288ZM24.915 10.8523C25.3164 11.5506 25.9706 12.0128 26.6963 12.1932V19.8057C26.6595 19.8148 26.623 19.8246 26.5868 19.8351L17.9719 4.91419C17.9978 4.88937 18.023 4.86381 18.0481 4.83794L24.6445 8.64656C24.4408 9.36256 24.5149 10.1562 24.915 10.8523ZM14.0303 4.91569L5.41694 19.8341C5.37956 19.8232 5.34194 19.8129 5.304 19.8036V12.1954C5.55631 12.1327 5.79879 12.0355 6.02462 11.9067C7.19025 11.2412 7.70913 9.88019 7.35556 8.64175L13.9486 4.83519C13.9751 4.86262 14.0026 4.88919 14.0303 4.91569ZM18.1086 27.2267C17.8716 26.9667 17.5885 26.7529 17.2736 26.5961C16.1287 26.0246 14.7873 26.2929 13.9458 27.1682L7.36206 23.3671C7.37269 23.3304 7.38288 23.2934 7.39206 23.2561H24.609C24.6246 23.3194 24.6415 23.382 24.6612 23.4435L18.1086 27.2267Z" fill="#ADB5BD"/>
</g>
<defs>
<clipPath id="clip0_312_117">
<rect width="32" height="32" fill="white"/>
</clipPath>
</defs>
</svg>
