<svg width="32" height="32" viewBox="0 0 32 32" fill="none" xmlns="http://www.w3.org/2000/svg">
<g clip-path="url(#clip0_566_215)">
<path d="M26.6667 17.0667V16.7104C26.6667 15.1403 25.3931 13.8667 23.8229 13.8667H21.3333C20.4846 13.8667 19.6707 14.2038 19.0706 14.8039C18.4705 15.404 18.1333 16.218 18.1333 17.0667C18.1333 17.9153 18.4705 18.7293 19.0706 19.3294C19.6707 19.9295 20.4846 20.2667 21.3333 20.2667H23.4667C24.3153 20.2667 25.1293 20.6038 25.7294 21.2039C26.3295 21.804 26.6667 22.618 26.6667 23.4667C26.6667 24.3153 26.3295 25.1293 25.7294 25.7294C25.1293 26.3295 24.3153 26.6667 23.4667 26.6667H21.3333C20.4846 26.6667 19.6707 26.3295 19.0706 25.7294C18.4705 25.1293 18.1333 24.3153 18.1333 23.4667M13.8667 12.8V23.4667C13.8667 24.3153 13.5295 25.1293 12.9294 25.7294C12.3293 26.3295 11.5153 26.6667 10.6667 26.6667C9.81796 26.6667 9.00403 26.3295 8.40391 25.7294C7.80379 25.1293 7.46665 24.3153 7.46665 23.4667M1.06665 1.06665H30.9333V30.9333H1.06665V1.06665Z" stroke="#ADB5BD" stroke-width="2.13333"/>
</g>
<defs>
<clipPath id="clip0_566_215">
<rect width="32" height="32" fill="white"/>
</clipPath>
</defs>
</svg>
