<svg width="32" height="32" viewBox="0 0 32 32" fill="none" xmlns="http://www.w3.org/2000/svg">
<g clip-path="url(#clip0_566_202)">
<path d="M16 31.9414C15.544 31.9414 15.12 31.8227 14.724 31.6174L10.6853 29.3C10.0786 28.9774 10.3826 28.86 10.5653 28.8014C11.384 28.5374 11.536 28.4787 12.3866 28.008C12.4773 27.9494 12.6 27.9787 12.6906 28.0374L15.788 29.828C15.908 29.8867 16.0613 29.8867 16.152 29.828L28.268 23.0494C28.388 22.9907 28.4493 22.8734 28.4493 22.7267V9.19869C28.4493 9.05202 28.3893 8.93469 28.268 8.87602L16.152 2.12802C16.0306 2.06936 15.8786 2.06936 15.788 2.12802L3.67198 8.87602C3.55065 8.93469 3.48931 9.08136 3.48931 9.19869V22.7267C3.48931 22.844 3.55065 22.9907 3.67198 23.0494L6.98131 24.8987C8.77331 25.7787 9.89598 24.752 9.89598 23.7254V10.3734C9.89598 10.1974 10.048 10.0214 10.2613 10.0214H11.8093C11.992 10.0214 12.1733 10.168 12.1733 10.3734V23.724C12.1733 26.0427 10.868 27.392 8.59065 27.392C7.89198 27.392 7.34531 27.392 5.79731 26.6587L2.60931 24.8987C2.22516 24.6874 1.90436 24.3775 1.68004 24.0008C1.45573 23.6241 1.33603 23.1944 1.33331 22.756V9.22802C1.33331 8.34802 1.81865 7.52669 2.60931 7.08669L14.7253 0.306689C15.1198 0.104404 15.5567 -0.00109863 16 -0.00109863C16.4433 -0.00109863 16.8802 0.104404 17.2746 0.306689L29.392 7.08536C30.1813 7.52536 30.6666 8.34669 30.6666 9.22669V22.7547C30.6666 23.6347 30.1813 24.456 29.392 24.8974L17.2746 31.6747C16.8723 31.8491 16.4385 31.939 16 31.9387V31.9414ZM19.7346 22.6387C14.4213 22.6387 13.328 20.292 13.328 18.296C13.328 18.12 13.48 17.944 13.692 17.944H15.2706C15.4533 17.944 15.604 18.0614 15.604 18.2374C15.848 19.792 16.5466 20.5547 19.7653 20.5547C22.316 20.5547 23.4093 19.9974 23.4093 18.6774C23.4093 17.9147 23.1053 17.3574 19.128 16.976C15.8173 16.652 13.7533 15.9494 13.7533 13.396C13.7533 11.0187 15.8173 9.60936 19.28 9.60936C23.1666 9.60936 25.08 10.9014 25.3226 13.7187C25.3199 13.8141 25.2878 13.9063 25.2306 13.9827C25.1706 14.0414 25.08 14.1 24.988 14.1H23.4093C23.3326 14.0982 23.2586 14.0714 23.1985 14.0238C23.1384 13.9762 23.0954 13.9102 23.076 13.836C22.7106 12.2227 21.7693 11.6934 19.28 11.6934C16.4853 11.6934 16.152 12.632 16.152 13.336C16.152 14.188 16.5466 14.452 20.312 14.9214C24.0466 15.3907 25.808 16.0654 25.808 18.588C25.7773 21.172 23.592 22.6387 19.7346 22.6387Z" fill="#ADB5BD"/>
</g>
<defs>
<clipPath id="clip0_566_202">
<rect width="32" height="32" fill="white"/>
</clipPath>
</defs>
</svg>
