<svg width="32" height="32" viewBox="0 0 32 32" fill="none" xmlns="http://www.w3.org/2000/svg">
<path d="M14.804 13.9173C14.3962 14.1528 14.0673 14.504 13.859 14.9264C13.6507 15.3488 13.5724 15.8234 13.6338 16.2904C13.6953 16.7573 13.8939 17.1955 14.2044 17.5496C14.5149 17.9037 14.9234 18.1578 15.3783 18.2797C15.8332 18.4016 16.314 18.3859 16.76 18.2346C17.206 18.0833 17.5971 17.8031 17.8838 17.4295C18.1706 17.0559 18.3401 16.6057 18.371 16.1357C18.4019 15.6658 18.2928 15.1972 18.0574 14.7893C17.901 14.5184 17.6929 14.281 17.4448 14.0905C17.1966 13.9001 16.9134 13.7604 16.6113 13.6794C16.3092 13.5984 15.9941 13.5778 15.684 13.6186C15.3739 13.6594 15.0749 13.7609 14.804 13.9173ZM25.4774 16.5013C25.3209 16.3227 25.156 16.1436 24.9827 15.964C25.1036 15.836 25.2209 15.7084 25.3347 15.5813C27.4747 13.176 28.3787 10.7627 27.5414 9.31333C26.7387 7.92267 24.3507 7.508 21.36 8.08933C21.0658 8.14711 20.7729 8.212 20.4814 8.284C20.4254 8.092 20.3663 7.90089 20.304 7.71067C19.2894 4.65333 17.6507 2.66533 15.976 2.66667C14.3707 2.66667 12.8187 4.52933 11.828 7.41067C11.7303 7.69511 11.64 7.98133 11.5574 8.26933C11.3627 8.22133 11.1671 8.17689 10.9707 8.136C7.81603 7.48933 5.27603 7.916 4.44003 9.368C3.63869 10.7587 4.47603 13.0347 6.47736 15.3307C6.67647 15.5573 6.88092 15.7796 7.09069 15.9973C6.84269 16.2507 6.60936 16.5053 6.3907 16.7587C4.43736 19.0227 3.64803 21.26 4.44803 22.6453C5.27469 24.0773 7.7787 24.5453 10.828 23.9453C11.0751 23.8964 11.3209 23.8413 11.5654 23.78C11.6543 24.092 11.7525 24.4018 11.86 24.7093C12.8467 27.532 14.3894 29.3333 15.9894 29.3333C17.6427 29.3333 19.2987 27.396 20.3027 24.4547C20.3827 24.2227 20.456 23.9813 20.528 23.7333C20.8436 23.8116 21.1614 23.8809 21.4814 23.9413C24.4187 24.4973 26.7507 24.0613 27.5494 22.6747C28.3747 21.2413 27.5227 18.8387 25.4774 16.5013ZM5.42669 9.936C5.94136 9.04267 8.01736 8.69333 10.7414 9.25333C10.9156 9.28889 11.0929 9.32889 11.2734 9.37333C11.0071 10.5498 10.8191 11.7426 10.7107 12.944C9.72837 13.6348 8.79174 14.3883 7.90669 15.2C7.71203 14.9982 7.52225 14.7916 7.33736 14.58C5.62136 12.6147 4.94403 10.7747 5.42669 9.936ZM10.6094 17.5733C9.92936 17.0573 9.29603 16.5293 8.72136 15.9987C9.29469 15.4707 9.92803 14.9453 10.608 14.4307C10.5831 14.9542 10.5711 15.4782 10.572 16.0027C10.572 16.5271 10.5845 17.0507 10.6094 17.5733ZM10.6094 22.8267C9.45365 23.0841 8.26045 23.1265 7.08936 22.952C6.76831 22.9269 6.45583 22.8362 6.17122 22.6855C5.88661 22.5349 5.63594 22.3274 5.4347 22.076C4.94803 21.236 5.58269 19.4387 7.25336 17.5027C7.46314 17.26 7.68003 17.0236 7.90403 16.7933C8.78948 17.61 9.72797 18.3672 10.7134 19.06C10.8229 20.2765 11.0126 21.4845 11.2814 22.676C11.0591 22.732 10.8347 22.7827 10.608 22.828L10.6094 22.8267ZM20.076 12.108C19.6289 11.8262 19.1765 11.5538 18.7187 11.2907C18.2671 11.0311 17.8107 10.7809 17.3494 10.54C18.1078 10.2197 18.8816 9.9371 19.668 9.69333C19.8445 10.4908 19.9807 11.2968 20.076 12.108ZM12.9067 7.78C13.7547 5.31333 15.0107 3.80667 15.9787 3.80667C17.0094 3.80533 18.348 5.43067 19.224 8.06933C19.2809 8.24178 19.3343 8.41511 19.384 8.58933C18.2341 8.94572 17.109 9.37777 16.016 9.88267C14.9267 9.37159 13.8042 8.9346 12.656 8.57467C12.7334 8.308 12.8169 8.04311 12.9067 7.78ZM12.3734 9.67867C13.1562 9.92504 13.926 10.2107 14.68 10.5347C13.7449 11.0164 12.8347 11.5413 11.9494 12.1093C12.056 11.2587 12.1987 10.444 12.3734 9.67867ZM11.9507 19.892C12.3925 20.1756 12.8409 20.448 13.296 20.7093C13.76 20.976 14.2298 21.232 14.7054 21.4773C13.9459 21.8125 13.1698 22.1084 12.38 22.364C12.1965 21.548 12.0532 20.7234 11.9507 19.8933V19.892ZM19.2254 24.0867C18.8706 25.216 18.3111 26.2705 17.5747 27.1973C17.3929 27.463 17.1585 27.6886 16.8861 27.8602C16.6136 28.0317 16.3089 28.1455 15.9907 28.1947C15.0187 28.1947 13.78 26.748 12.9374 24.3333C12.8378 24.048 12.7463 23.76 12.6627 23.4693C13.8163 23.0972 14.9433 22.6473 16.036 22.1227C17.1382 22.6316 18.2727 23.0677 19.432 23.428C19.368 23.6493 19.2991 23.8689 19.2254 24.0867ZM19.708 22.3213C18.9114 22.0726 18.1273 21.7851 17.3587 21.46C17.8111 21.2227 18.2667 20.9716 18.7254 20.7067C19.1965 20.4347 19.6551 20.156 20.1014 19.8707C20.0123 20.6937 19.881 21.5117 19.708 22.3213ZM20.304 15.9973C20.304 16.8071 20.2787 17.616 20.228 18.424C19.5707 18.8693 18.8774 19.304 18.156 19.72C17.436 20.1347 16.7254 20.516 16.0267 20.8613C15.2916 20.5093 14.5707 20.1298 13.864 19.7227C13.1618 19.3182 12.4756 18.8876 11.8054 18.4307C11.7431 17.6218 11.712 16.812 11.712 16.0013C11.712 15.1916 11.7423 14.3822 11.8027 13.5733C13.143 12.6582 14.5506 11.8457 16.0134 11.1427C16.7387 11.4956 17.4511 11.8738 18.1507 12.2773C18.8529 12.6809 19.5418 13.1071 20.2174 13.556C20.2751 14.3684 20.304 15.1822 20.304 15.9973ZM21.5787 9.20667C24.1414 8.70933 26.072 9.044 26.556 9.88267C27.072 10.776 26.3334 12.7467 24.484 14.824C24.3818 14.9387 24.276 15.0538 24.1667 15.1693C23.266 14.3551 22.3109 13.6031 21.308 12.9187C21.207 11.7306 21.0266 10.5506 20.768 9.38667C21.0436 9.31911 21.3138 9.25911 21.5787 9.20667ZM21.4054 14.3867C22.0821 14.8806 22.7328 15.4093 23.3547 15.9707C22.7356 16.541 22.0872 17.0787 21.412 17.5813C21.4325 17.0533 21.4427 16.5253 21.4427 15.9973C21.4427 15.4604 21.4303 14.9236 21.4054 14.3867ZM26.564 22.1053C26.0787 22.9467 24.2067 23.2973 21.6934 22.8227C21.4054 22.7684 21.1103 22.7036 20.808 22.628C21.0604 21.449 21.2328 20.2543 21.324 19.052C22.3251 18.356 23.2771 17.592 24.1734 16.7653C24.3307 16.928 24.48 17.0898 24.6214 17.2507C25.4228 18.1221 26.0569 19.1336 26.492 20.2347C26.6313 20.525 26.7095 20.8408 26.7219 21.1625C26.7343 21.4843 26.6806 21.8052 26.564 22.1053Z" fill="#ADB5BD"/>
</svg>
