<svg width="42" height="42" viewBox="0 0 42 42" fill="none" xmlns="http://www.w3.org/2000/svg">
<path d="M23.275 30.2313C22.925 29.8813 22.757 29.4584 22.771 28.9626C22.7862 28.4668 22.9688 28.0438 23.3188 27.6938L28.2625 22.7501H8.75C8.25417 22.7501 7.83825 22.5821 7.50225 22.2461C7.16742 21.9113 7 21.4959 7 21.0001C7 20.5043 7.16742 20.0883 7.50225 19.7523C7.83825 19.4175 8.25417 19.2501 8.75 19.2501H28.2625L23.275 14.2626C22.925 13.9126 22.75 13.4967 22.75 13.0148C22.75 12.5342 22.925 12.1188 23.275 11.7688C23.625 11.4188 24.0409 11.2438 24.5228 11.2438C25.0034 11.2438 25.4188 11.4188 25.7688 11.7688L33.775 19.7751C33.95 19.9501 34.0743 20.1397 34.1478 20.3438C34.2201 20.548 34.2563 20.7668 34.2563 21.0001C34.2563 21.2334 34.2201 21.4522 34.1478 21.6563C34.0743 21.8605 33.95 22.0501 33.775 22.2251L25.725 30.2751C25.4042 30.5959 25.0034 30.7563 24.5228 30.7563C24.0409 30.7563 23.625 30.5813 23.275 30.2313Z" fill="white"/>
</svg>
