<svg width="32" height="32" viewBox="0 0 32 32" fill="none" xmlns="http://www.w3.org/2000/svg">
<path d="M14.7506 1.94134C15.1242 1.70431 15.5575 1.57845 16 1.57845C16.4424 1.57845 16.8757 1.70431 17.2493 1.94134L28.4266 9.02934C28.7584 9.2401 29.0316 9.53123 29.2209 9.87572C29.4102 10.2202 29.5094 10.6069 29.5094 11C29.5094 11.3931 29.4102 11.7798 29.2209 12.1243C29.0316 12.4688 28.7584 12.7599 28.4266 12.9707L17.2493 20.0587C16.8757 20.2957 16.4424 20.4216 16 20.4216C15.5575 20.4216 15.1242 20.2957 14.7506 20.0587L3.57329 12.9707C3.2415 12.7599 2.9683 12.4688 2.77901 12.1243C2.58972 11.7798 2.49048 11.3931 2.49048 11C2.49048 10.6069 2.58972 10.2202 2.77901 9.87572C2.9683 9.53123 3.2415 9.2401 3.57329 9.02934L14.7506 1.94134ZM16.1786 3.63067C16.1252 3.59675 16.0632 3.57874 16 3.57874C15.9367 3.57874 15.8747 3.59675 15.8213 3.63067L4.64396 10.7187C4.5966 10.7488 4.5576 10.7903 4.53059 10.8395C4.50357 10.8887 4.4894 10.9439 4.4894 11C4.4894 11.0561 4.50357 11.1113 4.53059 11.1605C4.5576 11.2097 4.5966 11.2512 4.64396 11.2813L15.8213 18.3693C15.8747 18.4033 15.9367 18.4213 16 18.4213C16.0632 18.4213 16.1252 18.4033 16.1786 18.3693L27.356 11.2813C27.4033 11.2512 27.4423 11.2097 27.4693 11.1605C27.4963 11.1113 27.5105 11.0561 27.5105 11C27.5105 10.9439 27.4963 10.8887 27.4693 10.8395C27.4423 10.7903 27.4033 10.7488 27.356 10.7187L16.1786 3.63067Z" fill="white"/>
<path d="M2.48925 16.432C2.55954 16.3211 2.651 16.2251 2.7584 16.1495C2.8658 16.0739 2.98703 16.0202 3.11518 15.9915C3.24332 15.9628 3.37587 15.9596 3.50526 15.9821C3.63464 16.0046 3.75832 16.0524 3.86925 16.1227L15.8212 23.7027C15.8747 23.7366 15.9366 23.7546 15.9999 23.7546C16.0632 23.7546 16.1252 23.7366 16.1786 23.7027L28.1306 16.1227C28.2415 16.0523 28.3652 16.0044 28.4946 15.9818C28.624 15.9593 28.7566 15.9624 28.8848 15.991C29.013 16.0197 29.1344 16.0733 29.2418 16.1489C29.3493 16.2244 29.4409 16.3204 29.5112 16.4313C29.5816 16.5423 29.6295 16.666 29.6521 16.7954C29.6747 16.9248 29.6715 17.0574 29.6429 17.1856C29.6142 17.3138 29.5606 17.4351 29.485 17.5426C29.4095 17.6501 29.3135 17.7416 29.2026 17.812L17.2492 25.392C16.8757 25.629 16.4423 25.7549 15.9999 25.7549C15.5575 25.7549 15.1242 25.629 14.7506 25.392L2.79725 17.812C2.57344 17.6698 2.41527 17.4446 2.35751 17.1858C2.29975 16.927 2.34714 16.6559 2.48925 16.432Z" fill="white"/>
<path d="M2.48925 21.7653C2.55954 21.6544 2.651 21.5584 2.7584 21.4828C2.8658 21.4073 2.98703 21.3536 3.11518 21.3248C3.24332 21.2961 3.37587 21.2929 3.50526 21.3154C3.63464 21.3379 3.75832 21.3857 3.86925 21.456L15.8212 29.036C15.8747 29.0699 15.9366 29.0879 15.9999 29.0879C16.0632 29.0879 16.1252 29.0699 16.1786 29.036L28.1306 21.456C28.3546 21.3138 28.6259 21.2665 28.8848 21.3244C29.1438 21.3823 29.3691 21.5406 29.5112 21.7647C29.6534 21.9887 29.7007 22.26 29.6429 22.5189C29.585 22.7778 29.4266 23.0032 29.2026 23.1453L17.2492 30.7253C16.8757 30.9624 16.4423 31.0882 15.9999 31.0882C15.5575 31.0882 15.1242 30.9624 14.7506 30.7253L2.79725 23.1453C2.57344 23.0031 2.41527 22.7779 2.35751 22.5191C2.29975 22.2603 2.34714 21.9892 2.48925 21.7653Z" fill="white"/>
</svg>
