<svg width="32" height="32" viewBox="0 0 32 32" fill="none" xmlns="http://www.w3.org/2000/svg">
<g clip-path="url(#clip0_312_87)">
<path d="M16 5.33333C13.8112 5.33333 11.9296 5.92427 10.4533 7.18933C8.98561 8.448 8.02775 10.2763 7.49441 12.5568C7.4378 12.7983 7.46715 13.052 7.57741 13.2743C7.68767 13.4965 7.87194 13.6734 8.09851 13.7744C8.32509 13.8754 8.57979 13.8943 8.81879 13.8278C9.0578 13.7614 9.26616 13.6137 9.40801 13.4101C10.0821 12.4459 10.7563 11.8677 11.4048 11.5691C12.032 11.2811 12.7083 11.2235 13.4848 11.4304C14.2656 11.6395 14.8715 12.2539 15.8208 13.2864L15.8528 13.3205C16.5696 14.0992 17.4421 15.0485 18.6368 15.7867C19.8784 16.5525 21.4208 17.0667 23.4667 17.0667C25.6555 17.0667 27.5371 16.4757 29.0133 15.2107C30.4811 13.952 31.4411 12.1237 31.9723 9.8432C32.0289 9.60167 31.9995 9.34796 31.8893 9.12573C31.779 8.9035 31.5947 8.72665 31.3682 8.62561C31.1416 8.52457 30.8869 8.50567 30.6479 8.57215C30.4089 8.63864 30.2005 8.78635 30.0587 8.98987C29.3845 9.95413 28.7104 10.5323 28.0619 10.8309C27.4347 11.1189 26.7584 11.1765 25.9819 10.9696C25.2011 10.7605 24.5952 10.1461 23.6459 9.1136L23.6139 9.07947C22.8971 8.3008 22.0245 7.35147 20.8299 6.61333C19.5883 5.84747 18.0459 5.33333 16 5.33333ZM8.53335 14.9333C6.34455 14.9333 4.46294 15.5243 2.98668 16.7893C1.51895 18.048 0.561079 19.8763 0.0277453 22.1568C-0.0288623 22.3983 0.000488505 22.652 0.110747 22.8743C0.221005 23.0965 0.405276 23.2734 0.631848 23.3744C0.85842 23.4754 1.11312 23.4943 1.35213 23.4278C1.59113 23.3614 1.79949 23.2137 1.94135 23.0101C2.61548 22.0459 3.28961 21.4677 3.93814 21.1691C4.56534 20.8811 5.24161 20.8235 6.01815 21.0304C6.79895 21.2395 7.40481 21.8539 8.35415 22.8864L8.38614 22.9205C9.10294 23.6992 9.97548 24.6485 11.1701 25.3867C12.4117 26.1525 13.9541 26.6667 16 26.6667C18.1888 26.6667 20.0704 26.0757 21.5467 24.8107C23.0144 23.552 23.9744 21.7237 24.5056 19.4432C24.5622 19.2017 24.5329 18.948 24.4226 18.7257C24.3124 18.5035 24.1281 18.3266 23.9015 18.2256C23.6749 18.1246 23.4202 18.1057 23.1812 18.1722C22.9422 18.2386 22.7339 18.3863 22.592 18.5899C21.9179 19.5541 21.2437 20.1323 20.5952 20.4309C19.968 20.7189 19.2917 20.7765 18.5152 20.5696C17.7344 20.3605 17.1285 19.7461 16.1792 18.7136L16.1472 18.6795C15.4325 17.9008 14.5579 16.9515 13.3632 16.2133C12.1216 15.4453 10.5792 14.9333 8.53335 14.9333Z" fill="#ADB5BD"/>
</g>
<defs>
<clipPath id="clip0_312_87">
<rect width="32" height="32" fill="white"/>
</clipPath>
</defs>
</svg>
