<svg viewBox="0 0 200 200" xmlns="http://www.w3.org/2000/svg">
  <path fill="#f94144" d="M29.7,-56.8C32.9,-49.7,25.8,-30.3,24.5,-18.7C23.1,-7.2,27.6,-3.6,31.7,2.4C35.8,8.3,39.5,16.6,34.9,17.9C30.3,19.3,17.5,13.7,10.3,18.3C3.1,22.9,1.5,37.7,-4.5,45.5C-10.6,53.3,-21.2,54.2,-22.5,46.2C-23.9,38.2,-16.1,21.5,-21.4,12.3C-26.7,3.2,-45.2,1.6,-56.4,-6.5C-67.7,-14.6,-71.8,-29.2,-68.5,-41.9C-65.2,-54.6,-54.6,-65.3,-41.9,-66.9C-29.3,-68.5,-14.6,-61,-0.7,-59.8C13.3,-58.7,26.6,-63.9,29.7,-56.8Z" transform="translate(100 100)" />
</svg>